<svg xmlns="http://www.w3.org/2000/svg" viewBox="0 0 32 32" role="img" aria-hidden="true">
  <circle cx="16" cy="16" r="16" fill="#f7931a"/>
  <path fill="#fff" d="M20.56 14.27c.3-1.98-1.21-3.04-3.26-3.75l.67-2.69-1.64-.41-.65 2.62c-.43-.11-.88-.21-1.32-.31l.66-2.66-1.64-.41-.67 2.69c-.35-.08-.69-.16-1.02-.24v-.01l-2.26-.56-.44 1.77s1.21.28 1.18.3c.66.16.78.59.76.93l-.76 3.05c.05.01.11.03.18.06-.06-.01-.12-.03-.18-.04l-1.06 4.25c-.08.2-.28.49-.74.38.02.03-1.18-.3-1.18-.3l-.82 1.89 2.13.53c.4.1.79.21 1.18.31l-.68 2.73 1.64.41.67-2.69c.45.12.88.23 1.31.34l-.67 2.68 1.64.41.68-2.73c2.8.53 4.9.31 5.79-2.22.71-2.04-.04-3.21-1.49-3.98 1.06-.25 1.87-.97 2.08-2.45Zm-3.73 5.23c-.5 2.04-3.95.94-5.07.66l.89-3.58c1.12.28 4.7.79 4.18 2.92Zm.5-5.26c-.46 1.85-3.31.91-4.23.68l.81-3.25c.92.23 3.9.64 3.42 2.57Z"/>
</svg>
